<?xml version="1.0" encoding="UTF-8" standalone="no"?>
<!DOCTYPE svg PUBLIC "-//W3C//DTD SVG 1.1//EN"
 "http://www.w3.org/Graphics/SVG/1.1/DTD/svg11.dtd">
<!-- Generated by graphviz version 2.43.0 (0)
 -->
<!-- Title: G Pages: 1 -->
<svg width="278pt" height="628pt"
 viewBox="0.00 0.00 277.53 628.43" xmlns="http://www.w3.org/2000/svg" xmlns:xlink="http://www.w3.org/1999/xlink">
<g id="graph0" class="graph" transform="scale(1 1) rotate(0) translate(4 624.43)">
<title>G</title><style>.edge>path:hover{stroke-width:8}</style>
<polygon fill="white" stroke="transparent" points="-4,4 -4,-624.43 273.53,-624.43 273.53,4 -4,4"/>
<!-- mpc_agent -->
<g id="node1" class="node">
<title>mpc_agent</title><style>.edge>path:hover{stroke-width:8}</style>
<ellipse fill="#2bacac" stroke="black" cx="181.97" cy="-168.43" rx="40.06" ry="18"/>
<text text-anchor="middle" x="181.97" y="-165.93" font-family="Helvetica,sans-Serif" font-size="10.00" fill="#000000">mpc.agent</text>
</g>
<!-- mpc_environment -->
<g id="node2" class="node">
<title>mpc_environment</title><style>.edge>path:hover{stroke-width:8}</style>
<ellipse fill="#439d9d" stroke="black" cx="77.97" cy="-21.21" rx="55.72" ry="21.43"/>
<text text-anchor="middle" x="77.97" y="-24.21" font-family="Helvetica,sans-Serif" font-size="10.00" fill="#000000">mpc.</text>
<text text-anchor="middle" x="77.97" y="-13.21" font-family="Helvetica,sans-Serif" font-size="10.00" fill="#000000">environment</text>
</g>
<!-- mpc_agent&#45;&gt;mpc_environment -->
<g id="edge6" class="edge">
<title>mpc_agent&#45;&gt;mpc_environment</title><style>.edge>path:hover{stroke-width:8}</style>
<path fill="none" stroke="black" d="M161.63,-152.65C145.78,-139.93 124.74,-120.07 113.97,-97.43"/>
</g>
<!-- mpc_plotter -->
<g id="node6" class="node">
<title>mpc_plotter</title><style>.edge>path:hover{stroke-width:8}</style>
<ellipse fill="#35a1a1" stroke="black" cx="42.97" cy="-96.43" rx="42.94" ry="18"/>
<text text-anchor="middle" x="42.97" y="-93.93" font-family="Helvetica,sans-Serif" font-size="10.00" fill="#000000">mpc.plotter</text>
</g>
<!-- mpc_agent&#45;&gt;mpc_plotter -->
<g id="edge7" class="edge">
<title>mpc_agent&#45;&gt;mpc_plotter</title><style>.edge>path:hover{stroke-width:8}</style>
<path fill="none" stroke="black" d="M156.15,-154.42C134.39,-143.46 103.02,-127.66 78.82,-115.48"/>
<polygon fill="#2bacac" stroke="black" points="80.11,-112.21 69.6,-110.84 76.96,-118.46 80.11,-112.21"/>
</g>
<!-- mpc_geometry -->
<g id="node3" class="node">
<title>mpc_geometry</title><style>.edge>path:hover{stroke-width:8}</style>
<ellipse fill="#2db4b4" stroke="black" cx="126.97" cy="-384.43" rx="51.61" ry="18"/>
<text text-anchor="middle" x="126.97" y="-381.93" font-family="Helvetica,sans-Serif" font-size="10.00" fill="#000000">mpc.geometry</text>
</g>
<!-- mpc_geometry&#45;&gt;mpc_agent -->
<g id="edge8" class="edge">
<title>mpc_geometry&#45;&gt;mpc_agent</title><style>.edge>path:hover{stroke-width:8}</style>
<path fill="none" stroke="black" d="M110.9,-366.81C102.61,-357.06 93.34,-344.01 88.97,-330.43 74.21,-284.49 73.76,-262.93 99.97,-222.43 110.36,-206.37 127.53,-194.17 143.48,-185.54"/>
<polygon fill="#2db4b4" stroke="black" points="145.33,-188.53 152.66,-180.88 142.16,-182.28 145.33,-188.53"/>
</g>
<!-- mpc_obstacle -->
<g id="node4" class="node">
<title>mpc_obstacle</title><style>.edge>path:hover{stroke-width:8}</style>
<ellipse fill="#16caca" stroke="black" cx="145.97" cy="-312.43" rx="48.04" ry="18"/>
<text text-anchor="middle" x="145.97" y="-309.93" font-family="Helvetica,sans-Serif" font-size="10.00" fill="#000000">mpc.obstacle</text>
</g>
<!-- mpc_geometry&#45;&gt;mpc_obstacle -->
<g id="edge9" class="edge">
<title>mpc_geometry&#45;&gt;mpc_obstacle</title><style>.edge>path:hover{stroke-width:8}</style>
<path fill="none" stroke="black" d="M131.57,-366.48C133.69,-358.69 136.25,-349.25 138.62,-340.51"/>
<polygon fill="#2db4b4" stroke="black" points="142.04,-341.27 141.28,-330.7 135.29,-339.44 142.04,-341.27"/>
</g>
<!-- mpc_obstacle&#45;&gt;mpc_agent -->
<g id="edge10" class="edge">
<title>mpc_obstacle&#45;&gt;mpc_agent</title><style>.edge>path:hover{stroke-width:8}</style>
<path fill="none" stroke="black" d="M113.97,-239.43C114.22,-217.93 130.93,-200.55 147.72,-188.48"/>
<polygon fill="#16caca" stroke="black" points="150.05,-191.13 156.42,-182.66 146.16,-185.31 150.05,-191.13"/>
</g>
<!-- mpc_obstacle&#45;&gt;mpc_environment -->
<g id="edge11" class="edge">
<title>mpc_obstacle&#45;&gt;mpc_environment</title><style>.edge>path:hover{stroke-width:8}</style>
<path fill="none" stroke="black" d="M113.97,-167.43C106.91,-137.13 127.33,-125.52 113.97,-97.43"/>
<path fill="none" stroke="black" d="M113.97,-95.43C107.07,-80.91 99.22,-64.88 92.61,-51.53"/>
<polygon fill="#16caca" stroke="black" points="95.63,-49.74 88.05,-42.34 89.36,-52.86 95.63,-49.74"/>
</g>
<!-- mpc_planner -->
<g id="node5" class="node">
<title>mpc_planner</title><style>.edge>path:hover{stroke-width:8}</style>
<ellipse fill="#38a8a8" stroke="black" cx="186.97" cy="-240.43" rx="45.15" ry="18"/>
<text text-anchor="middle" x="186.97" y="-237.93" font-family="Helvetica,sans-Serif" font-size="10.00" fill="#000000">mpc.planner</text>
</g>
<!-- mpc_obstacle&#45;&gt;mpc_planner -->
<g id="edge12" class="edge">
<title>mpc_obstacle&#45;&gt;mpc_planner</title><style>.edge>path:hover{stroke-width:8}</style>
<path fill="none" stroke="black" d="M155.9,-294.48C160.73,-286.23 166.65,-276.13 172.01,-266.96"/>
<polygon fill="#16caca" stroke="black" points="175.1,-268.61 177.14,-258.22 169.06,-265.08 175.1,-268.61"/>
</g>
<!-- mpc_obstacle&#45;&gt;mpc_plotter -->
<g id="edge13" class="edge">
<title>mpc_obstacle&#45;&gt;mpc_plotter</title><style>.edge>path:hover{stroke-width:8}</style>
<path fill="none" stroke="black" d="M133.39,-294.84C124.33,-281.23 113.75,-261.07 113.97,-241.43"/>
<path fill="none" stroke="black" d="M113.97,-239.43C114.33,-208.32 121.04,-199.73 113.97,-169.43"/>
<path fill="none" stroke="black" d="M113.97,-167.43C109.05,-146.32 91.97,-129.12 75.79,-117.05"/>
<polygon fill="#16caca" stroke="black" points="77.68,-114.1 67.48,-111.21 73.65,-119.83 77.68,-114.1"/>
</g>
<!-- mpc_planner&#45;&gt;mpc_agent -->
<g id="edge14" class="edge">
<title>mpc_planner&#45;&gt;mpc_agent</title><style>.edge>path:hover{stroke-width:8}</style>
<path fill="none" stroke="black" d="M185.74,-222.12C185.19,-214.41 184.52,-205.14 183.91,-196.54"/>
<polygon fill="#38a8a8" stroke="black" points="187.4,-196.26 183.19,-186.53 180.42,-196.75 187.4,-196.26"/>
</g>
<!-- mpc_plotter&#45;&gt;mpc_environment -->
<g id="edge15" class="edge">
<title>mpc_plotter&#45;&gt;mpc_environment</title><style>.edge>path:hover{stroke-width:8}</style>
<path fill="none" stroke="black" d="M51.09,-78.45C54.93,-70.42 59.62,-60.61 64,-51.44"/>
<polygon fill="#35a1a1" stroke="black" points="67.25,-52.75 68.41,-42.22 60.94,-49.73 67.25,-52.75"/>
</g>
<!-- casadi -->
<g id="node7" class="node">
<title>casadi</title><style>.edge>path:hover{stroke-width:8}</style>
<polygon fill="#d02424" stroke="black" points="231.97,-511.43 228.97,-515.43 207.97,-515.43 204.97,-511.43 177.97,-511.43 177.97,-475.43 231.97,-475.43 231.97,-511.43"/>
<text text-anchor="middle" x="204.97" y="-490.93" font-family="Helvetica,sans-Serif" font-size="10.00" fill="#ffffff">casadi</text>
</g>
<!-- casadi&#45;&gt;mpc_geometry -->
<g id="edge1" class="edge">
<title>casadi&#45;&gt;mpc_geometry</title><style>.edge>path:hover{stroke-width:8}</style>
<path fill="none" stroke="black" d="M215.38,-475C220.27,-464.78 224.52,-451.53 221.97,-439.43"/>
<path fill="none" stroke="black" d="M221.97,-438.43C217.7,-418.1 199.56,-405.45 180.25,-397.64"/>
<polygon fill="#d02424" stroke="black" points="181.34,-394.31 170.74,-394.18 178.94,-400.89 181.34,-394.31"/>
</g>
<!-- casadi&#45;&gt;mpc_obstacle -->
<g id="edge2" class="edge">
<title>casadi&#45;&gt;mpc_obstacle</title><style>.edge>path:hover{stroke-width:8}</style>
<path fill="none" stroke="black" d="M221.97,-438.43C217.13,-415.37 227.64,-408.29 221.97,-385.43"/>
<path fill="none" stroke="black" d="M221.97,-383.43C216.68,-362.07 199.02,-345.12 182.06,-333.24"/>
<polygon fill="#d02424" stroke="black" points="183.6,-330.07 173.32,-327.5 179.75,-335.92 183.6,-330.07"/>
</g>
<!-- casadi&#45;&gt;mpc_planner -->
<g id="edge3" class="edge">
<title>casadi&#45;&gt;mpc_planner</title><style>.edge>path:hover{stroke-width:8}</style>
<path fill="none" stroke="black" d="M221.97,-383.43C212.25,-344.17 213.05,-333.6 202.97,-294.43 200.76,-285.82 198.06,-276.52 195.51,-268.15"/>
<polygon fill="#d02424" stroke="black" points="198.83,-267.03 192.52,-258.51 192.14,-269.1 198.83,-267.03"/>
</g>
<!-- matplotlib -->
<g id="node8" class="node">
<title>matplotlib</title><style>.edge>path:hover{stroke-width:8}</style>
<polygon fill="#75d317" stroke="black" points="93.47,-511.43 90.47,-515.43 69.47,-515.43 66.47,-511.43 26.47,-511.43 26.47,-475.43 93.47,-475.43 93.47,-511.43"/>
<text text-anchor="middle" x="59.97" y="-490.93" font-family="Helvetica,sans-Serif" font-size="10.00" fill="#000000">matplotlib</text>
</g>
<!-- matplotlib&#45;&gt;mpc_geometry -->
<g id="edge4" class="edge">
<title>matplotlib&#45;&gt;mpc_geometry</title><style>.edge>path:hover{stroke-width:8}</style>
<path fill="none" stroke="black" d="M31.97,-438.43C34.52,-417.47 52.96,-404.71 72.93,-396.98"/>
<polygon fill="#75d317" stroke="black" points="74.17,-400.26 82.47,-393.68 71.88,-393.64 74.17,-400.26"/>
</g>
<!-- matplotlib&#45;&gt;mpc_plotter -->
<g id="edge5" class="edge">
<title>matplotlib&#45;&gt;mpc_plotter</title><style>.edge>path:hover{stroke-width:8}</style>
<path fill="none" stroke="black" d="M44.42,-475.37C37.15,-465.49 30.39,-452.44 31.97,-439.43"/>
<path fill="none" stroke="black" d="M31.97,-438.43C38.69,-383.28 31.97,-368.98 31.97,-313.43 31.97,-313.43 31.97,-313.43 31.97,-239.43 31.97,-199.3 36.39,-152.99 39.63,-124.46"/>
<polygon fill="#75d317" stroke="black" points="43.11,-124.78 40.8,-114.44 36.16,-123.97 43.11,-124.78"/>
</g>
<!-- numpy -->
<g id="node9" class="node">
<title>numpy</title><style>.edge>path:hover{stroke-width:8}</style>
<polygon fill="#7f06f9" stroke="black" points="231.97,-620.43 228.97,-624.43 207.97,-624.43 204.97,-620.43 177.97,-620.43 177.97,-584.43 231.97,-584.43 231.97,-620.43"/>
<text text-anchor="middle" x="204.97" y="-599.93" font-family="Helvetica,sans-Serif" font-size="10.00" fill="#ffffff">numpy</text>
</g>
<!-- numpy&#45;&gt;mpc_agent -->
<g id="edge18" class="edge">
<title>numpy&#45;&gt;mpc_agent</title><style>.edge>path:hover{stroke-width:8}</style>
<path fill="none" stroke="black" d="M259.97,-311.43C250.57,-272.09 261.23,-257.43 240.97,-222.43 233.72,-209.89 222.46,-198.71 211.72,-189.88"/>
<polygon fill="#7f06f9" stroke="black" points="213.72,-187 203.68,-183.61 209.41,-192.52 213.72,-187"/>
</g>
<!-- numpy&#45;&gt;mpc_geometry -->
<g id="edge19" class="edge">
<title>numpy&#45;&gt;mpc_geometry</title><style>.edge>path:hover{stroke-width:8}</style>
<path fill="none" stroke="black" d="M204.97,-547.43C198.43,-525.77 180.87,-530.67 168.97,-511.43 149.71,-480.26 138.18,-439.24 132.2,-412.6"/>
<polygon fill="#7f06f9" stroke="black" points="135.62,-411.86 130.11,-402.81 128.78,-413.32 135.62,-411.86"/>
</g>
<!-- numpy&#45;&gt;mpc_obstacle -->
<g id="edge20" class="edge">
<title>numpy&#45;&gt;mpc_obstacle</title><style>.edge>path:hover{stroke-width:8}</style>
<path fill="none" stroke="black" d="M204.97,-547.43C198.82,-525.65 230.77,-531.63 240.97,-511.43 266.5,-460.87 278.58,-438.91 259.97,-385.43"/>
<path fill="none" stroke="black" d="M259.97,-383.43C248,-355.7 218.78,-338.08 192.92,-327.45"/>
<polygon fill="#7f06f9" stroke="black" points="194.17,-324.19 183.58,-323.85 191.65,-330.72 194.17,-324.19"/>
</g>
<!-- numpy&#45;&gt;mpc_planner -->
<g id="edge21" class="edge">
<title>numpy&#45;&gt;mpc_planner</title><style>.edge>path:hover{stroke-width:8}</style>
<path fill="none" stroke="black" d="M259.97,-383.43C247.64,-354.87 267.2,-343.69 259.97,-313.43"/>
<path fill="none" stroke="black" d="M259.97,-311.43C254.93,-290.34 237.77,-273.31 221.35,-261.33"/>
<polygon fill="#7f06f9" stroke="black" points="223.13,-258.3 212.91,-255.53 219.17,-264.07 223.13,-258.3"/>
</g>
<!-- numpy&#45;&gt;casadi -->
<g id="edge16" class="edge">
<title>numpy&#45;&gt;casadi</title><style>.edge>path:hover{stroke-width:8}</style>
<path fill="none" stroke="black" d="M204.97,-547.43C202.5,-539.25 201.82,-530.04 201.96,-521.61"/>
<polygon fill="#7f06f9" stroke="black" points="205.46,-521.67 202.5,-511.5 198.47,-521.3 205.46,-521.67"/>
</g>
<!-- numpy&#45;&gt;matplotlib -->
<g id="edge17" class="edge">
<title>numpy&#45;&gt;matplotlib</title><style>.edge>path:hover{stroke-width:8}</style>
<path fill="none" stroke="black" d="M207.45,-584.35C208.38,-573.78 208.49,-560.05 204.97,-548.43"/>
<path fill="none" stroke="black" d="M204.97,-547.43C201.84,-537.06 144.92,-518.67 103.34,-506.51"/>
<polygon fill="#7f06f9" stroke="black" points="104.25,-503.14 93.68,-503.72 102.31,-509.86 104.25,-503.14"/>
</g>
</g>
</svg>
